<mxfile host="app.diagrams.net" agent="Mozilla/5.0 (Windows NT 10.0; Win64; x64) AppleWebKit/537.36 (KHTML, like Gecko) Chrome/130.0.0.0 Safari/537.36 Edg/130.0.0.0" version="24.8.0">
  <diagram name="Page-1" id="pG8_zNcNYhtdr4i-cpv-">
    <mxGraphModel dx="1426" dy="791" grid="0" gridSize="10" guides="1" tooltips="1" connect="1" arrows="1" fold="1" page="0" pageScale="1" pageWidth="850" pageHeight="1100" background="#000000" math="0" shadow="0">
      <root>
        <mxCell id="0" />
        <mxCell id="1" parent="0" />
        <mxCell id="J-wNMf_4F0RsYoabih5--39" value="" style="rounded=0;whiteSpace=wrap;html=1;fillColor=#000000;strokeColor=#FFFFFF;" vertex="1" parent="1">
          <mxGeometry x="629" y="106" width="120" height="60" as="geometry" />
        </mxCell>
        <mxCell id="J-wNMf_4F0RsYoabih5--1" value="" style="endArrow=classic;html=1;rounded=0;strokeColor=#FFFFFF;" edge="1" parent="1">
          <mxGeometry width="50" height="50" relative="1" as="geometry">
            <mxPoint x="68" y="237" as="sourcePoint" />
            <mxPoint x="203" y="237" as="targetPoint" />
          </mxGeometry>
        </mxCell>
        <mxCell id="J-wNMf_4F0RsYoabih5--6" value="Con" style="text;html=1;align=center;verticalAlign=middle;whiteSpace=wrap;rounded=0;" vertex="1" parent="1">
          <mxGeometry x="103" y="206" width="60" height="30" as="geometry" />
        </mxCell>
        <mxCell id="J-wNMf_4F0RsYoabih5--7" value="" style="endArrow=none;dashed=1;html=1;rounded=0;strokeColor=#FFFFFF;" edge="1" parent="1">
          <mxGeometry width="50" height="50" relative="1" as="geometry">
            <mxPoint x="202" y="655" as="sourcePoint" />
            <mxPoint x="202" y="176" as="targetPoint" />
          </mxGeometry>
        </mxCell>
        <mxCell id="J-wNMf_4F0RsYoabih5--8" value="" style="rounded=0;whiteSpace=wrap;html=1;fillColor=#000000;strokeColor=#FFFFFF;" vertex="1" parent="1">
          <mxGeometry x="143" y="112" width="120" height="60" as="geometry" />
        </mxCell>
        <mxCell id="J-wNMf_4F0RsYoabih5--9" value="&lt;font color=&quot;#ffffff&quot;&gt;&lt;u&gt;:System&lt;/u&gt;&lt;/font&gt;" style="text;html=1;align=center;verticalAlign=middle;whiteSpace=wrap;rounded=0;" vertex="1" parent="1">
          <mxGeometry x="173" y="127" width="60" height="30" as="geometry" />
        </mxCell>
        <mxCell id="J-wNMf_4F0RsYoabih5--10" value="&lt;font color=&quot;#ffffff&quot;&gt;AddUser(Type, UserInfo)&lt;/font&gt;" style="text;html=1;align=center;verticalAlign=middle;whiteSpace=wrap;rounded=0;" vertex="1" parent="1">
          <mxGeometry x="45" y="206" width="140" height="30" as="geometry" />
        </mxCell>
        <mxCell id="J-wNMf_4F0RsYoabih5--16" value="" style="endArrow=classic;html=1;rounded=0;strokeColor=#FFFFFF;" edge="1" parent="1">
          <mxGeometry width="50" height="50" relative="1" as="geometry">
            <mxPoint x="200" y="282" as="sourcePoint" />
            <mxPoint x="374" y="282" as="targetPoint" />
          </mxGeometry>
        </mxCell>
        <mxCell id="J-wNMf_4F0RsYoabih5--18" value="" style="endArrow=none;dashed=1;html=1;rounded=0;strokeColor=#FFFFFF;" edge="1" parent="1">
          <mxGeometry width="50" height="50" relative="1" as="geometry">
            <mxPoint x="371" y="658" as="sourcePoint" />
            <mxPoint x="371" y="176" as="targetPoint" />
          </mxGeometry>
        </mxCell>
        <mxCell id="J-wNMf_4F0RsYoabih5--19" value="" style="rounded=0;whiteSpace=wrap;html=1;fillColor=#000000;strokeColor=#FFFFFF;" vertex="1" parent="1">
          <mxGeometry x="312" y="112" width="120" height="60" as="geometry" />
        </mxCell>
        <mxCell id="J-wNMf_4F0RsYoabih5--20" value="&lt;font color=&quot;#ffffff&quot;&gt;&lt;u&gt;:Users&lt;/u&gt;&lt;/font&gt;" style="text;html=1;align=center;verticalAlign=middle;whiteSpace=wrap;rounded=0;" vertex="1" parent="1">
          <mxGeometry x="342" y="127" width="60" height="30" as="geometry" />
        </mxCell>
        <mxCell id="J-wNMf_4F0RsYoabih5--21" value="&lt;font color=&quot;#ffffff&quot;&gt;AddUser(UserInfo)&lt;/font&gt;" style="text;html=1;align=center;verticalAlign=middle;whiteSpace=wrap;rounded=0;" vertex="1" parent="1">
          <mxGeometry x="219" y="251" width="135" height="30" as="geometry" />
        </mxCell>
        <mxCell id="J-wNMf_4F0RsYoabih5--22" value="" style="endArrow=classic;html=1;rounded=0;strokeColor=#FFFFFF;" edge="1" parent="1">
          <mxGeometry width="50" height="50" relative="1" as="geometry">
            <mxPoint x="369" y="281" as="sourcePoint" />
            <mxPoint x="372" y="318" as="targetPoint" />
            <Array as="points">
              <mxPoint x="402" y="318" />
            </Array>
          </mxGeometry>
        </mxCell>
        <mxCell id="J-wNMf_4F0RsYoabih5--24" value="&lt;font color=&quot;#ffffff&quot;&gt;idgen()&lt;/font&gt;" style="text;html=1;align=center;verticalAlign=middle;whiteSpace=wrap;rounded=0;" vertex="1" parent="1">
          <mxGeometry x="346" y="279" width="135" height="30" as="geometry" />
        </mxCell>
        <mxCell id="J-wNMf_4F0RsYoabih5--25" value="" style="endArrow=classic;html=1;rounded=0;strokeColor=#FFFFFF;entryX=0;entryY=0.5;entryDx=0;entryDy=0;" edge="1" parent="1" target="J-wNMf_4F0RsYoabih5--26">
          <mxGeometry width="50" height="50" relative="1" as="geometry">
            <mxPoint x="370" y="338" as="sourcePoint" />
            <mxPoint x="504" y="338" as="targetPoint" />
          </mxGeometry>
        </mxCell>
        <mxCell id="J-wNMf_4F0RsYoabih5--26" value="" style="rounded=0;whiteSpace=wrap;html=1;fillColor=#000000;strokeColor=#FFFFFF;" vertex="1" parent="1">
          <mxGeometry x="529" y="307" width="120" height="60" as="geometry" />
        </mxCell>
        <mxCell id="J-wNMf_4F0RsYoabih5--27" value="&lt;font color=&quot;#ffffff&quot;&gt;&lt;u&gt;p :Users&lt;/u&gt;&lt;/font&gt;" style="text;html=1;align=center;verticalAlign=middle;whiteSpace=wrap;rounded=0;" vertex="1" parent="1">
          <mxGeometry x="557" y="322" width="60" height="30" as="geometry" />
        </mxCell>
        <mxCell id="J-wNMf_4F0RsYoabih5--30" value="&lt;font color=&quot;#ffffff&quot;&gt;CreateUser(id, UserInfo, Gaurdian)&lt;/font&gt;" style="text;html=1;align=center;verticalAlign=middle;whiteSpace=wrap;rounded=0;" vertex="1" parent="1">
          <mxGeometry x="384" y="322" width="135" height="30" as="geometry" />
        </mxCell>
        <mxCell id="J-wNMf_4F0RsYoabih5--31" value="" style="endArrow=classic;html=1;rounded=0;strokeColor=#FFFFFF;" edge="1" parent="1">
          <mxGeometry width="50" height="50" relative="1" as="geometry">
            <mxPoint x="370" y="417" as="sourcePoint" />
            <mxPoint x="678" y="417" as="targetPoint" />
          </mxGeometry>
        </mxCell>
        <mxCell id="J-wNMf_4F0RsYoabih5--32" value="&lt;font color=&quot;#ffffff&quot;&gt;Add(p)&lt;/font&gt;" style="text;html=1;align=center;verticalAlign=middle;whiteSpace=wrap;rounded=0;" vertex="1" parent="1">
          <mxGeometry x="389" y="386" width="135" height="30" as="geometry" />
        </mxCell>
        <mxCell id="J-wNMf_4F0RsYoabih5--33" value="" style="endArrow=none;dashed=1;html=1;rounded=0;strokeColor=#FFFFFF;" edge="1" parent="1">
          <mxGeometry width="50" height="50" relative="1" as="geometry">
            <mxPoint x="680" y="664" as="sourcePoint" />
            <mxPoint x="680" y="178" as="targetPoint" />
          </mxGeometry>
        </mxCell>
        <mxCell id="J-wNMf_4F0RsYoabih5--34" value="" style="rounded=0;whiteSpace=wrap;html=1;fillColor=#000000;strokeColor=#FFFFFF;" vertex="1" parent="1">
          <mxGeometry x="621" y="114" width="120" height="60" as="geometry" />
        </mxCell>
        <mxCell id="J-wNMf_4F0RsYoabih5--35" value="&lt;font color=&quot;#ffffff&quot;&gt;&lt;u&gt;:Users&lt;/u&gt;&lt;/font&gt;" style="text;html=1;align=center;verticalAlign=middle;whiteSpace=wrap;rounded=0;" vertex="1" parent="1">
          <mxGeometry x="651" y="129" width="60" height="30" as="geometry" />
        </mxCell>
        <mxCell id="J-wNMf_4F0RsYoabih5--42" value="" style="endArrow=classic;html=1;rounded=0;strokeColor=#FFFFFF;" edge="1" parent="1">
          <mxGeometry width="50" height="50" relative="1" as="geometry">
            <mxPoint x="204" y="471" as="sourcePoint" />
            <mxPoint x="844.5" y="471" as="targetPoint" />
          </mxGeometry>
        </mxCell>
        <mxCell id="J-wNMf_4F0RsYoabih5--43" value="&lt;font color=&quot;#ffffff&quot;&gt;AddInstructor(UserInfo)&lt;/font&gt;" style="text;html=1;align=center;verticalAlign=middle;whiteSpace=wrap;rounded=0;" vertex="1" parent="1">
          <mxGeometry x="223" y="440" width="135" height="30" as="geometry" />
        </mxCell>
        <mxCell id="J-wNMf_4F0RsYoabih5--44" value="" style="rounded=0;whiteSpace=wrap;html=1;fillColor=#000000;strokeColor=#FFFFFF;" vertex="1" parent="1">
          <mxGeometry x="1102" y="106" width="120" height="60" as="geometry" />
        </mxCell>
        <mxCell id="J-wNMf_4F0RsYoabih5--45" value="" style="endArrow=none;dashed=1;html=1;rounded=0;strokeColor=#FFFFFF;" edge="1" parent="1">
          <mxGeometry width="50" height="50" relative="1" as="geometry">
            <mxPoint x="844" y="663" as="sourcePoint" />
            <mxPoint x="844" y="176" as="targetPoint" />
          </mxGeometry>
        </mxCell>
        <mxCell id="J-wNMf_4F0RsYoabih5--46" value="" style="rounded=0;whiteSpace=wrap;html=1;fillColor=#000000;strokeColor=#FFFFFF;" vertex="1" parent="1">
          <mxGeometry x="785" y="112" width="120" height="60" as="geometry" />
        </mxCell>
        <mxCell id="J-wNMf_4F0RsYoabih5--47" value="&lt;font color=&quot;#ffffff&quot;&gt;&lt;u&gt;:Instructor&lt;/u&gt;&lt;/font&gt;" style="text;html=1;align=center;verticalAlign=middle;whiteSpace=wrap;rounded=0;" vertex="1" parent="1">
          <mxGeometry x="815" y="127" width="60" height="30" as="geometry" />
        </mxCell>
        <mxCell id="J-wNMf_4F0RsYoabih5--48" value="" style="endArrow=classic;html=1;rounded=0;strokeColor=#FFFFFF;" edge="1" parent="1">
          <mxGeometry width="50" height="50" relative="1" as="geometry">
            <mxPoint x="845" y="472" as="sourcePoint" />
            <mxPoint x="848" y="509" as="targetPoint" />
            <Array as="points">
              <mxPoint x="878" y="509" />
            </Array>
          </mxGeometry>
        </mxCell>
        <mxCell id="J-wNMf_4F0RsYoabih5--49" value="&lt;font color=&quot;#ffffff&quot;&gt;idgen()&lt;/font&gt;" style="text;html=1;align=center;verticalAlign=middle;whiteSpace=wrap;rounded=0;" vertex="1" parent="1">
          <mxGeometry x="822" y="470" width="135" height="30" as="geometry" />
        </mxCell>
        <mxCell id="J-wNMf_4F0RsYoabih5--50" value="" style="endArrow=classic;html=1;rounded=0;strokeColor=#FFFFFF;entryX=0;entryY=0.5;entryDx=0;entryDy=0;" edge="1" parent="1" target="J-wNMf_4F0RsYoabih5--51">
          <mxGeometry width="50" height="50" relative="1" as="geometry">
            <mxPoint x="846" y="529" as="sourcePoint" />
            <mxPoint x="980" y="529" as="targetPoint" />
          </mxGeometry>
        </mxCell>
        <mxCell id="J-wNMf_4F0RsYoabih5--51" value="" style="rounded=0;whiteSpace=wrap;html=1;fillColor=#000000;strokeColor=#FFFFFF;" vertex="1" parent="1">
          <mxGeometry x="1005" y="498" width="120" height="60" as="geometry" />
        </mxCell>
        <mxCell id="J-wNMf_4F0RsYoabih5--52" value="&lt;font color=&quot;#ffffff&quot;&gt;&lt;u&gt;c&amp;nbsp; :Instructor&lt;/u&gt;&lt;/font&gt;" style="text;html=1;align=center;verticalAlign=middle;whiteSpace=wrap;rounded=0;" vertex="1" parent="1">
          <mxGeometry x="1029" y="513" width="70" height="30" as="geometry" />
        </mxCell>
        <mxCell id="J-wNMf_4F0RsYoabih5--53" value="&lt;font color=&quot;#ffffff&quot;&gt;CreateInstructor(id, UserInfo)&lt;/font&gt;" style="text;html=1;align=center;verticalAlign=middle;whiteSpace=wrap;rounded=0;" vertex="1" parent="1">
          <mxGeometry x="860" y="513" width="135" height="30" as="geometry" />
        </mxCell>
        <mxCell id="J-wNMf_4F0RsYoabih5--54" value="" style="endArrow=classic;html=1;rounded=0;strokeColor=#FFFFFF;" edge="1" parent="1">
          <mxGeometry width="50" height="50" relative="1" as="geometry">
            <mxPoint x="846" y="608" as="sourcePoint" />
            <mxPoint x="1154" y="608" as="targetPoint" />
          </mxGeometry>
        </mxCell>
        <mxCell id="J-wNMf_4F0RsYoabih5--55" value="&lt;font color=&quot;#ffffff&quot;&gt;Add(c)&lt;/font&gt;" style="text;html=1;align=center;verticalAlign=middle;whiteSpace=wrap;rounded=0;" vertex="1" parent="1">
          <mxGeometry x="865" y="577" width="135" height="30" as="geometry" />
        </mxCell>
        <mxCell id="J-wNMf_4F0RsYoabih5--56" value="" style="endArrow=none;dashed=1;html=1;rounded=0;strokeColor=#FFFFFF;" edge="1" parent="1">
          <mxGeometry width="50" height="50" relative="1" as="geometry">
            <mxPoint x="1155" y="657" as="sourcePoint" />
            <mxPoint x="1153" y="178" as="targetPoint" />
          </mxGeometry>
        </mxCell>
        <mxCell id="J-wNMf_4F0RsYoabih5--57" value="" style="rounded=0;whiteSpace=wrap;html=1;fillColor=#000000;strokeColor=#FFFFFF;" vertex="1" parent="1">
          <mxGeometry x="1094" y="114" width="120" height="60" as="geometry" />
        </mxCell>
        <mxCell id="J-wNMf_4F0RsYoabih5--58" value="&lt;font color=&quot;#ffffff&quot;&gt;&lt;u&gt;:Instructor&lt;/u&gt;&lt;/font&gt;" style="text;html=1;align=center;verticalAlign=middle;whiteSpace=wrap;rounded=0;" vertex="1" parent="1">
          <mxGeometry x="1124" y="129" width="60" height="30" as="geometry" />
        </mxCell>
        <mxCell id="J-wNMf_4F0RsYoabih5--60" value="" style="endArrow=classic;html=1;rounded=0;strokeColor=#FFFFFF;" edge="1" parent="1">
          <mxGeometry width="50" height="50" relative="1" as="geometry">
            <mxPoint x="677" y="439" as="sourcePoint" />
            <mxPoint x="201" y="437" as="targetPoint" />
          </mxGeometry>
        </mxCell>
        <mxCell id="J-wNMf_4F0RsYoabih5--62" value="&lt;font color=&quot;#ffffff&quot;&gt;Confirmation()&lt;/font&gt;" style="text;html=1;align=center;verticalAlign=middle;whiteSpace=wrap;rounded=0;" vertex="1" parent="1">
          <mxGeometry x="219" y="410" width="135" height="30" as="geometry" />
        </mxCell>
        <mxCell id="J-wNMf_4F0RsYoabih5--63" value="" style="endArrow=classic;html=1;rounded=0;strokeColor=#FFFFFF;" edge="1" parent="1">
          <mxGeometry width="50" height="50" relative="1" as="geometry">
            <mxPoint x="1148" y="648" as="sourcePoint" />
            <mxPoint x="204" y="644" as="targetPoint" />
          </mxGeometry>
        </mxCell>
        <mxCell id="J-wNMf_4F0RsYoabih5--64" value="&lt;font color=&quot;#ffffff&quot;&gt;Confirmation()&lt;/font&gt;" style="text;html=1;align=center;verticalAlign=middle;whiteSpace=wrap;rounded=0;" vertex="1" parent="1">
          <mxGeometry x="216" y="615" width="135" height="30" as="geometry" />
        </mxCell>
      </root>
    </mxGraphModel>
  </diagram>
</mxfile>
